<?xml version="1.0" standalone="no"?>
<!DOCTYPE svg PUBLIC "-//W3C//DTD SVG 20010904//EN"
 "http://www.w3.org/TR/2001/REC-SVG-20010904/DTD/svg10.dtd">
<svg version="1.0" xmlns="http://www.w3.org/2000/svg"
 width="720.000000pt" height="720.000000pt" viewBox="0 0 720.000000 720.000000"
 preserveAspectRatio="xMidYMid meet">
<metadata>
Created by potrace 1.11, written by Peter Selinger 2001-2013
</metadata>
<g transform="translate(0.000000,720.000000) scale(0.100000,-0.100000)"
fill="#000000" stroke="none">
<path d="M0 3600 l0 -3600 3600 0 3600 0 0 3600 0 3600 -3600 0 -3600 0 0
-3600z m4410 1958 c247 -62 415 -143 595 -283 273 -213 462 -520 540 -875 25
-117 31 -362 11 -497 -62 -418 -294 -786 -642 -1019 -95 -63 -232 -133 -327
-165 l-67 -24 -463 463 -462 462 280 0 c217 0 294 3 338 15 254 66 416 321
364 571 -40 186 -178 336 -357 384 -34 9 -243 12 -825 11 l-780 -2 -495 496
-495 495 1340 -3 1340 -3 105 -26z m-405 -2938 l1000 -1000 -700 0 -700 0
-1000 1000 -1000 1000 700 0 700 0 1000 -1000z"/>
</g>
</svg>
